PathFileType	4	(X/Y/Z)	RBDS010\RBDS010runT45.trc
DataRate	CameraRate	NumFrames	NumMarkers	Units	OrigDataRate	OrigDataStartFrame	OrigNumFrames
150.000000	150.000000	4	32	mm	150.000000	3937	4500
Frame#	Time	L.ASIS			L.Heel.Bottom			L.Heel.Lateral			L.Heel.Top			L.Iliac.Crest			L.MT5			L.PSIS			L.Shank.Bottom.Lateral			L.Shank.Bottom.Medial			L.Shank.Top.Lateral			L.Shank.Top.Medial			L.Thigh.Bottom.Lateral			L.Thigh.Bottom.Medial			L.Thigh.Top.Lateral			L.Thigh.Top.Medial			R.ASIS			R.ASY			R.Heel.Bottom			R.Heel.Lateral			R.Heel.Top			R.Iliac.Crest			R.MT1			R.MT5			R.PSIS			R.Shank.Bottom.Lateral			R.Shank.Bottom.Medial			R.Shank.Top.Lateral			R.Shank.Top.Medial			R.Thigh.Bottom.Lateral			R.Thigh.Bottom.Medial			R.Thigh.Top.Lateral			R.Thigh.Top.Medial			
		X1	Y1	Z1	X2	Y2	Z2	X3	Y3	Z3	X4	Y4	Z4	X5	Y5	Z5	X6	Y6	Z6	X7	Y7	Z7	X8	Y8	Z8	X9	Y9	Z9	X10	Y10	Z10	X11	Y11	Z11	X12	Y12	Z12	X13	Y13	Z13	X14	Y14	Z14	X15	Y15	Z15	X16	Y16	Z16	X17	Y17	Z17	X18	Y18	Z18	X19	Y19	Z19	X20	Y20	Z20	X21	Y21	Z21	X22	Y22	Z22	X23	Y23	Z23	X24	Y24	Z24	X25	Y25	Z25	X26	Y26	Z26	X27	Y27	Z27	X28	Y28	Z28	X29	Y29	Z29	X30	Y30	Z30	X31	Y31	Z31	X32	Y32	Z32	

3938	26.24666666666667	2386.496142164479	969.9059517173609	886.9272687575898	2271.498675015719	175.3181403087311	934.1665424595149	2304.249037911864	180.8698998945527	889.5264198626402	2302.461485770143	215.7142445588833	938.2852297587203	2337.367230719384	1066.112475135026	858.9854103583614	2445.184601255564	105.7538164997994	859.4285245500316	2234.884882724474	1033.445238958467	967.4927902789576	2381.16430452369	270.4570184908286	879.3306592688936	2351.036225510979	284.7238847826254	921.8564940141893	2403.195814177749	347.016195808803	867.4004933425557	2373.330735393953	362.2709421330791	909.5311943547177	2485.965983866588	635.5517157067819	850.8732089751612	2438.00125357175	595.08446734513	887.8933117204377	2405.610660879739	709.8453167863137	835.0666233532179	2362.167765057631	674.5541728338425	874.1718592022476	2398.294750089859	938.2109266958126	1109.181469435804	1858.354796768808	137.0297900026509	1053.092752129567	1731.32802077637	278.4298692814935	1028.168404668391	1750.911508921945	257.391227931364	1075.312312144355	1778.075074783155	289.211489217994	1039.395081221325	2367.712973040877	1031.72899233527	1150.511336031179	1833.732362354118	95.52756799344435	986.1656867659966	1799.438925061467	101.0716914768619	1094.906306234931	2244.241207246454	1028.087720307182	1067.240600169556	1869.094434988949	299.8614963281207	1097.750286040759	1838.90283224794	328.9233525270276	1067.540019675027	1917.643311884556	367.9375996992553	1112.164696010514	1883.74106811671	395.0834102647073	1080.314445069359	2137.117719339347	626.1331464407889	1140.850839105231	2081.433354335816	656.2363043209397	1101.983313116083	2176.773703445168	727.6290514633266	1157.221936965777	2126.638110153826	755.9791572663303	1119.292587070931	
3939	26.25333333333333	2386.199969271784	971.5291724984116	887.403224337309	2299.493373921599	157.0551220665534	937.2641479506458	2331.440752345583	164.0938255113348	892.267815827129	2327.088315975689	199.8927452806398	940.23714686993	2337.709084011383	1068.11974199955	859.5145535452905	2477.541722312251	99.72444832022092	863.1886921927272	2235.797773287813	1035.916663931333	968.2435334124166	2400.927442821123	260.9077156381583	881.1636333292097	2370.490427142922	273.1221794880685	924.0724563056441	2417.292481202669	338.7327971787367	868.5453394441643	2387.101758407645	351.9092935247795	911.1901302415416	2483.78822558411	635.5191698436203	850.7496546257755	2435.952950193446	595.0070330065889	887.8644046670834	2403.526483151527	710.1804052995475	835.7907984438065	2360.287174620075	674.8346654277099	875.0243275796341	2399.272908028758	940.2633683007617	1109.137920951288	1842.487121105227	147.8750243293669	1053.698759034904	1720.869105831687	296.0770184576728	1033.264068650065	1740.346677504292	273.2011567414366	1079.580617948236	1768.39084219684	304.4571147161811	1043.651465854999	2370.451502414049	1034.118472918982	1150.260605452842	1814.609476221916	108.7514156596474	986.3221723406522	1781.998293218275	113.6219568041099	1095.571489264593	2245.636859477029	1031.132367477039	1068.075321612014	1859.414070394163	310.5912343292997	1100.138390418101	1829.540992410168	340.5104241887277	1070.490843483873	1909.864432908321	377.3824188310012	1113.811883076773	1876.096492481028	405.4576810934714	1082.780174570824	2134.910066734404	631.0126763723893	1140.794721799979	2079.291558953732	662.3632995733431	1102.648747864388	2176.370748962504	731.7879811836322	1157.65077636464	2126.398196959088	761.2125875985291	1120.326964296764	
3940	26.26	2385.695891455915	972.6142755073672	887.9023770228164	2327.415768946324	140.2741490316551	940.6655661313675	2358.515002262034	148.6367875452709	895.280896400011	2351.57792029202	185.2292708361483	942.4275328420931	2337.761085687497	1069.307950062912	859.8952444030186	2508.921298874192	94.95059111606497	866.9471255648035	2236.276287005818	1037.659201484662	968.8579435829199	2420.158721177144	251.9129463244219	883.1101388067359	2389.51454697828	262.1801057558932	926.3292791039439	2430.851492912532	330.5038830180497	869.728414780189	2400.412564144667	341.7222688539875	912.8063814880004	2480.527548601362	634.1438911225109	850.435217207718	2433.038348288816	594.0257834147621	888.2305901085492	2400.512173916848	709.3022884116264	836.3031953712953	2357.605639697505	674.2549345825114	876.0627297941985	2400.039517619733	942.2095840007873	1109.258902556886	1827.055065369514	159.9785129642596	1053.835669880181	1710.363540345541	313.7064106051639	1038.164092608398	1729.805001678427	289.1428653784474	1083.59705092756	1758.472241835568	319.9572592129461	1047.578291581136	2372.493470647592	1036.475110791038	1150.007567288073	1796.366990272468	123.2298504173682	986.1238305673772	1765.485115494709	127.184698153694	1095.95618220978	2246.617189692665	1033.721769133828	1068.738343991886	1850.05248150532	321.6879593894741	1102.133027547544	1820.704054772191	352.7314295400291	1073.183740246269	1902.771092774652	386.7846357262108	1115.222310203323	1869.369279697808	416.0600314723235	1085.070585628738	2134.175124526151	634.5841317497011	1140.805916892231	2078.427672299741	666.8785891157592	1103.501381983284	2176.849134750391	734.7799982003546	1158.227433284282	2126.801939876473	765.0480905364881	1121.688726950047	
3941	26.26666666666667	2385.040543310088	973.2435705030312	888.4237371543188	2354.87072712823	125.1783564956052	944.4126835557684	2385.091351441717	134.6661605851802	898.603507504674	2375.623054597351	171.9039729348693	944.8912301791026	2337.55506244719	1069.755737882429	860.1485393368383	2538.941218147763	91.32712040636747	870.6640062938892	2236.345573483276	1038.671287086483	969.3567924889566	2438.64829456602	243.5555197445577	885.1762742640165	2407.870948107373	251.9905643536751	928.635636795397	2443.711663165796	322.43719490173	870.9863341859074	2413.081096994057	331.8250859820506	914.4152599965322	2476.273376501412	631.560418727314	849.9808363014189	2429.336837534231	592.2826822296395	889.0199587419236	2396.686235692125	707.3526317681585	836.6159248613853	2354.230211656628	672.9680372736561	877.2858693749279	2400.645065808654	944.0205184469647	1109.539590010217	1812.080307612075	173.2104809252513	1053.594291286209	1699.98053981631	331.3704106976384	1042.68476844801	1719.371363959232	305.2688202616268	1087.230671496465	1748.50576535273	335.7322908944911	1051.088470603611	2373.745097665128	1038.778024106155	1149.776365936061	1779.083826099413	138.7681447630855	985.6375263728683	1749.813574695802	141.6653608728621	1096.06286573524	2247.197799025611	1035.779144024288	1069.238343527519	1841.068424391799	333.1496348973855	1103.742180600232	1812.476929751073	365.5195923570138	1075.552697143043	1896.358827170533	396.1507031103708	1116.384237940727	1863.579697114713	426.840415771327	1087.102967086593	2134.793522115911	636.8006397559444	1140.888310343019	2078.752708550675	669.7271545893894	1104.479078548897	2178.116061318644	736.5775434257358	1158.920410764471	2127.778118996454	767.4470905799877	1123.288752147793	
